<?xml version="1.0" standalone="no"?>
<!DOCTYPE svg PUBLIC "-//W3C//DTD SVG 20010904//EN"
 "http://www.w3.org/TR/2001/REC-SVG-20010904/DTD/svg10.dtd">
<svg version="1.0" xmlns="http://www.w3.org/2000/svg"
 width="512.000000pt" height="512.000000pt" viewBox="0 0 512.000000 512.000000"
 preserveAspectRatio="xMidYMid meet">

<g transform="translate(0.000000,512.000000) scale(0.100000,-0.100000)"
fill="#000000" stroke="none">
<path d="M1986 4629 c-62 -15 -153 -68 -197 -116 -22 -24 -55 -74 -72 -111
l-32 -67 0 -495 0 -495 32 -67 c44 -93 100 -151 191 -196 l76 -37 670 -3 671
-3 400 -399 c364 -363 404 -400 433 -400 22 0 41 9 57 25 l25 24 0 375 0 374
248 4 248 3 76 37 c91 45 147 103 191 196 l32 67 0 495 0 495 -32 67 c-44 93
-100 151 -191 196 l-76 37 -1355 2 c-797 1 -1372 -3 -1395 -8z m2728 -161 c55
-16 138 -99 154 -154 17 -58 17 -890 0 -948 -16 -55 -99 -138 -154 -154 -28
-8 -129 -12 -313 -12 l-272 0 -24 -25 -25 -24 0 -318 0 -318 -343 343 -343
342 -673 0 c-500 0 -684 3 -715 12 -55 16 -138 99 -154 154 -17 58 -17 890 0
948 15 51 99 137 148 153 53 17 2658 17 2714 1z"/>
<path d="M2640 4307 c-49 -16 -133 -102 -148 -153 -19 -64 -15 -102 13 -129
49 -50 135 -15 135 55 0 41 39 80 80 80 41 0 80 -39 80 -80 0 -41 -39 -80 -80
-80 -19 0 -40 -9 -55 -25 -24 -23 -25 -28 -25 -175 0 -147 1 -152 25 -175 15
-16 36 -25 55 -25 19 0 40 9 55 25 23 23 25 31 25 130 0 89 2 105 16 105 27 0
119 101 132 146 28 94 8 169 -63 239 -70 71 -152 91 -245 62z"/>
<path d="M3280 4307 c-49 -16 -133 -102 -148 -153 -19 -64 -15 -102 13 -129
49 -50 135 -15 135 55 0 41 39 80 80 80 41 0 80 -39 80 -80 0 -41 -39 -80 -80
-80 -19 0 -40 -9 -55 -25 -24 -23 -25 -28 -25 -175 0 -147 1 -152 25 -175 15
-16 36 -25 55 -25 19 0 40 9 55 25 23 23 25 31 25 130 0 89 2 105 16 105 27 0
119 101 132 146 28 94 8 169 -63 239 -70 71 -152 91 -245 62z"/>
<path d="M3920 4307 c-49 -16 -133 -102 -148 -153 -19 -64 -15 -102 13 -129
49 -50 135 -15 135 55 0 41 39 80 80 80 41 0 80 -39 80 -80 0 -41 -39 -80 -80
-80 -19 0 -40 -9 -55 -25 -24 -23 -25 -28 -25 -175 0 -147 1 -152 25 -175 15
-16 36 -25 55 -25 19 0 40 9 55 25 23 23 25 31 25 130 0 89 2 105 16 105 27 0
119 101 132 146 28 94 8 169 -63 239 -70 71 -152 91 -245 62z"/>
<path d="M2665 3495 c-16 -15 -25 -36 -25 -55 0 -19 9 -40 25 -55 15 -16 36
-25 55 -25 19 0 40 9 55 25 16 15 25 36 25 55 0 19 -9 40 -25 55 -15 16 -36
25 -55 25 -19 0 -40 -9 -55 -25z"/>
<path d="M3305 3495 c-16 -15 -25 -36 -25 -55 0 -19 9 -40 25 -55 15 -16 36
-25 55 -25 19 0 40 9 55 25 16 15 25 36 25 55 0 19 -9 40 -25 55 -15 16 -36
25 -55 25 -19 0 -40 -9 -55 -25z"/>
<path d="M3945 3495 c-16 -15 -25 -36 -25 -55 0 -19 9 -40 25 -55 15 -16 36
-25 55 -25 19 0 40 9 55 25 16 15 25 36 25 55 0 19 -9 40 -25 55 -15 16 -36
25 -55 25 -19 0 -40 -9 -55 -25z"/>
<path d="M386 2869 c-62 -15 -153 -68 -197 -116 -22 -24 -55 -74 -72 -111
l-32 -67 0 -495 0 -495 32 -67 c44 -93 100 -151 191 -196 l76 -37 248 -3 248
-4 0 -374 0 -375 25 -24 c16 -16 35 -25 57 -25 29 0 69 37 433 400 l400 399
671 3 670 3 76 37 c91 45 147 103 191 196 l32 67 0 495 0 495 -32 67 c-44 93
-100 151 -191 196 l-76 37 -1355 2 c-797 1 -1372 -3 -1395 -8z m2728 -161 c55
-16 138 -99 154 -154 17 -58 17 -890 0 -948 -16 -55 -99 -138 -154 -154 -31
-9 -215 -12 -715 -12 l-673 0 -343 -342 -343 -343 0 318 0 318 -25 24 -24 25
-272 0 c-184 0 -285 4 -313 12 -55 16 -138 99 -154 154 -17 58 -17 890 0 948
15 51 99 137 148 153 53 17 2658 17 2714 1z"/>
<path d="M825 2455 c-16 -15 -25 -36 -25 -55 0 -19 9 -40 25 -55 l24 -25 1071
0 1071 0 24 25 c16 15 25 36 25 55 0 19 -9 40 -25 55 l-24 25 -1071 0 -1071 0
-24 -25z"/>
<path d="M505 2135 c-16 -15 -25 -36 -25 -55 0 -19 9 -40 25 -55 l24 -25 1231
0 1231 0 24 25 c33 32 33 78 0 110 l-24 25 -1231 0 -1231 0 -24 -25z"/>
<path d="M505 1815 c-16 -15 -25 -36 -25 -55 0 -19 9 -40 25 -55 l24 -25 911
0 911 0 24 25 c33 32 33 78 0 110 l-24 25 -911 0 -911 0 -24 -25z"/>
</g>
</svg>
