<?xml version="1.0" standalone="no"?>
<!DOCTYPE svg PUBLIC "-//W3C//DTD SVG 20010904//EN"
 "http://www.w3.org/TR/2001/REC-SVG-20010904/DTD/svg10.dtd">
<svg version="1.0" xmlns="http://www.w3.org/2000/svg"
 width="1280.000000pt" height="1080.000000pt" viewBox="0 0 1280.000000 1080.000000"
 preserveAspectRatio="xMidYMid meet">
<metadata>
Created by potrace 1.16, written by Peter Selinger 2001-2019
</metadata>
<g transform="translate(0.000000,1080.000000) scale(0.100000,-0.100000)"
fill="#000000" stroke="none">
<path d="M10378 10313 c281 -2 743 -2 1025 0 281 1 51 2 -513 2 -564 0 -794
-1 -512 -2z"/>
<path d="M9830 10300 c21 -3 -124 -25 -350 -53 -211 -26 -389 -52 -395 -58 -5
-5 -12 -110 -15 -252 l-5 -242 -6 160 c-4 106 -5 76 -2 -89 2 -136 0 -391 -4
-565 -8 -308 -8 -312 -14 -156 -4 92 -4 44 -2 -115 2 -151 -3 -538 -12 -858
l-15 -584 -31 -44 c-16 -24 -32 -44 -35 -44 -3 0 9 20 26 45 27 39 31 52 27
98 l-3 52 -2 -53 c-2 -61 -25 -100 -126 -217 -46 -54 -51 -62 -20 -35 l39 35
-35 -38 c-19 -20 -40 -35 -46 -33 -7 3 -18 -3 -26 -12 -12 -15 -11 -16 5 -3 9
7 17 11 17 7 0 -13 -80 -57 -91 -50 -7 4 -10 3 -6 -3 14 -22 -141 -74 -213
-71 l-45 1 55 7 c53 6 53 7 13 8 -42 2 -43 3 -44 40 l-2 37 -8 -40 c-6 -30 -7
-23 -4 30 3 39 8 214 12 390 7 291 9 307 14 180 4 -97 5 -74 3 73 -3 117 -1
336 3 485 8 260 8 266 13 127 3 -80 6 82 6 360 2 541 2 542 -49 600 l-22 25
24 -20 c13 -11 32 -38 42 -60 10 -22 19 -34 19 -27 0 41 -55 103 -98 110 -27
5 -7443 19 -7451 15 -2 -2 11 -3 30 -4 32 -1 32 -2 -10 -10 -24 -5 -47 -6 -52
-4 -4 3 -11 0 -15 -6 -5 -8 -2 -10 7 -5 8 4 5 1 -5 -8 -10 -8 -22 -13 -26 -11
-10 6 -24 -25 -21 -44 1 -7 -1 -11 -6 -8 -4 3 -8 -5 -9 -16 -8 -303 -10 -440
-5 -357 6 101 6 97 14 -99 4 -112 6 -276 3 -365 -2 -109 -1 -127 3 -56 6 102
6 99 14 -99 4 -112 6 -276 3 -365 -2 -109 -1 -127 3 -56 8 140 43 -791 37
-1000 -2 -104 -2 -117 3 -45 6 95 6 89 14 -104 4 -112 6 -276 3 -365 -2 -109
-1 -127 3 -56 8 140 43 -791 37 -1000 -3 -115 -2 -124 3 -45 l7 100 4 -135 c3
-74 5 -156 5 -182 0 -25 4 -44 9 -40 5 3 7 -2 3 -11 -6 -17 62 -87 86 -87 6 0
-1 8 -18 19 -16 10 -39 29 -50 42 -13 15 -7 13 17 -8 21 -18 54 -37 75 -42 26
-7 520 -12 1508 -13 l1470 -3 -1475 -5 -1475 -5 1463 -3 1462 -2 2 -202 2
-203 6 205 6 205 2 -208 2 -207 -564 2 c-310 2 -560 1 -555 -2 4 -3 -1 -11
-12 -19 -12 -7 -18 -8 -14 -2 3 6 4 11 2 11 -11 0 -158 -241 -153 -249 4 -5 1
-13 -5 -17 -8 -4 -9 -3 -5 4 4 7 5 12 3 12 -3 0 -23 -28 -46 -63 -39 -60 -41
-67 -39 -133 l1 -69 6 75 c5 60 12 83 35 118 16 23 31 42 33 42 5 0 -11 -27
-44 -75 -19 -28 -18 -164 2 -171 8 -4 13 -9 11 -13 -2 -3 879 -6 1959 -6 1080
0 1961 3 1959 6 -2 3 8 11 21 17 24 11 25 16 23 84 l-2 73 -6 -75 -6 -75 -2
65 c-1 35 -16 143 -33 238 -16 96 -28 181 -25 188 3 8 0 13 -6 11 -7 -1 -12 5
-13 13 0 13 -71 15 -567 18 l-568 2 0 200 0 200 1373 2 1372 3 -1380 5 -1380
5 1375 3 c1167 2 1381 5 1415 17 49 18 48 18 40 3 -4 -7 14 8 39 34 25 26 46
53 46 60 0 7 -8 0 -19 -17 -10 -16 -29 -39 -42 -50 -22 -18 -22 -17 2 10 53
60 53 59 64 440 10 309 12 341 17 225 3 -74 3 -34 1 90 -6 343 23 1271 38
1185 l6 -40 2 38 1 37 53 2 52 1 -65 7 -65 7 61 1 c33 1 87 11 120 22 32 11
64 18 72 15 8 -3 10 0 6 7 -5 8 -2 9 10 5 11 -5 15 -3 10 5 -5 8 -2 9 10 5 11
-5 15 -3 10 5 -5 8 -2 9 10 5 11 -5 15 -3 10 5 -5 7 -2 9 9 5 14 -5 97 44 97
59 0 3 -15 -6 -32 -19 -39 -29 -58 -40 -58 -34 0 2 19 17 41 32 23 15 62 46
88 68 l46 41 -35 -39 -35 -40 38 35 c20 19 35 40 33 46 -2 6 9 25 26 40 l31
29 -7 -54 c-4 -33 -14 -60 -24 -68 -15 -12 -15 -12 3 -7 11 4 1 -7 -23 -25
-23 -17 -47 -29 -51 -27 -5 3 -17 -4 -27 -17 l-19 -22 25 20 c14 11 0 -5 -30
-35 -50 -50 -119 -153 -91 -136 8 6 8 1 0 -18 -7 -14 -16 -23 -20 -20 -5 3 -6
-3 -2 -12 3 -10 2 -15 -3 -12 -5 4 -10 -4 -11 -15 0 -12 -20 -74 -43 -137 -45
-126 -88 -287 -119 -452 -50 -261 -101 -740 -118 -1113 -7 -154 -9 -163 -14
-90 -3 44 -4 -3 -1 -105 4 -195 -5 -295 -38 -423 -19 -74 -74 -207 -85 -207
-3 0 2 14 10 31 9 17 15 32 13 34 -2 2 -16 -20 -31 -50 -16 -29 -56 -86 -89
-126 -49 -59 -53 -67 -22 -39 l39 35 -35 -38 c-19 -20 -40 -35 -46 -33 -7 3
-20 -5 -31 -17 -18 -22 -18 -22 3 -7 11 8 6 2 -10 -13 -47 -43 -163 -110 -177
-101 -7 4 -9 3 -6 -3 8 -13 -126 -71 -246 -108 -267 -81 -524 -123 -1127 -187
l-215 -23 -2490 0 -2490 0 2480 5 2480 5 -2485 0 c-2202 0 -2485 -2 -2485 -15
-1 -8 -5 -14 -10 -13 -12 1 -770 -967 -770 -984 0 -7 -7 -18 -15 -25 -12 -11
-12 -11 -1 5 7 9 11 17 8 17 -3 0 -40 -45 -82 -100 l-77 -100 -1 -157 -1 -158
-6 150 -6 150 -2 -148 -2 -147 25 -12 c13 -6 23 -14 21 -17 -6 -9 9717 3 9732
12 9 6 12 49 12 157 l0 148 -50 142 c-52 147 -57 165 -39 140 8 -11 9 -9 3 10
-3 14 -11 32 -16 40 -6 10 -7 7 -2 -10 22 -82 -23 36 -165 433 -88 246 -162
451 -166 457 -4 7 -435 10 -1303 11 -713 1 -1283 4 -1267 6 68 9 345 66 433
89 52 14 138 41 191 61 53 20 106 36 118 37 11 0 19 5 15 10 -3 5 2 6 12 3 11
-5 15 -3 10 5 -5 8 -2 9 10 5 11 -5 15 -3 10 5 -5 8 -2 9 10 5 11 -5 15 -3 10
5 -5 8 -2 9 10 5 10 -4 15 -3 11 3 -7 11 52 43 65 35 5 -3 12 0 16 6 5 8 3 9
-6 4 -9 -6 -11 -4 -6 4 5 7 14 10 22 7 7 -3 16 0 20 6 5 7 2 8 -6 3 -9 -6 -11
-4 -6 4 5 7 14 10 21 7 8 -3 19 3 27 12 12 16 11 16 -7 2 -19 -14 -19 -14 -6
3 8 10 20 16 27 13 6 -2 22 7 35 22 l24 27 -30 -25 -30 -25 25 28 c13 15 30
25 37 23 15 -6 127 119 119 133 -4 5 -1 13 5 17 8 5 10 3 4 -7 -6 -11 -4 -10
8 1 18 18 97 160 96 175 0 6 -16 -20 -35 -57 -19 -38 -37 -68 -39 -68 -3 0 10
30 29 68 79 156 100 278 118 677 10 229 14 282 19 225 4 -44 5 -24 2 50 -10
302 85 985 181 1302 37 122 107 293 127 312 6 6 -1 -12 -15 -41 -14 -29 -26
-56 -26 -60 1 -4 14 18 31 50 16 32 27 63 23 69 -4 7 -3 8 4 4 12 -7 36 29 28
43 -3 4 15 28 40 52 l45 44 -5 -179 c-3 -99 -9 -183 -14 -188 -4 -4 -7 9 -5
30 l2 37 -8 -40 c-5 -22 -7 -43 -5 -46 2 -4 -4 -13 -14 -20 -15 -13 -16 -12
-3 4 7 9 11 17 7 17 -15 0 -157 -243 -156 -267 1 -4 19 27 41 70 21 42 41 77
44 77 3 0 -13 -37 -36 -82 -80 -159 -151 -409 -181 -638 -18 -144 -15 -499 6
-654 22 -160 82 -401 131 -526 20 -52 38 -105 39 -117 0 -11 4 -20 7 -18 3 2
24 -35 47 -81 24 -47 37 -82 30 -78 -13 8 26 -63 75 -136 45 -66 177 -199 192
-194 7 3 16 0 21 -7 5 -8 3 -10 -6 -4 -8 5 -11 4 -6 -3 4 -6 13 -9 20 -6 8 3
17 0 22 -7 5 -8 3 -10 -6 -4 -9 5 -11 4 -6 -4 4 -6 11 -9 16 -6 13 8 52 -14
45 -25 -4 -6 1 -7 11 -3 10 3 15 2 12 -3 -4 -5 4 -10 15 -11 12 -1 54 -13 93
-27 142 -51 293 -60 749 -42 163 6 248 5 290 -3 74 -14 172 -61 205 -98 l25
-28 -29 25 -29 25 27 -37 c26 -35 46 -53 30 -26 -4 7 -3 8 5 4 6 -4 9 -11 6
-16 -7 -11 5 -41 15 -35 6 4 35 -45 28 -50 -2 -1 -18 -12 -35 -24 -18 -12 -37
-20 -42 -17 -4 3 -17 -4 -27 -17 l-19 -22 25 20 25 20 -19 -23 c-11 -12 -25
-21 -32 -18 -15 6 -98 -79 -90 -92 3 -6 1 -14 -5 -18 -8 -5 -9 -3 -4 6 5 9 4
11 -4 6 -12 -8 -51 -80 -51 -93 1 -4 10 9 21 30 11 20 22 37 24 37 3 0 -4 -19
-16 -42 -30 -59 -30 -156 -1 -220 11 -27 19 -48 16 -48 -3 0 -14 19 -24 43
-11 23 -20 35 -20 26 0 -18 64 -117 106 -164 14 -16 23 -23 18 -16 -10 20 45
-20 71 -50 13 -16 8 -14 -14 6 l-34 30 38 -47 c22 -27 41 -48 43 -48 3 0 -2 8
-9 18 -13 15 -12 16 3 3 10 -7 15 -17 13 -22 -7 -10 49 -102 57 -94 10 10 78
-155 113 -277 20 -67 47 -147 61 -176 30 -65 23 -68 -11 -4 -15 26 -23 38 -20
27 10 -32 63 -116 102 -160 19 -22 32 -34 28 -27 -11 21 26 -1 50 -30 19 -22
18 -22 -10 2 l-30 25 24 -27 c13 -15 29 -24 36 -22 7 3 16 0 21 -7 5 -8 3 -10
-6 -4 -9 5 -11 4 -6 -4 4 -6 11 -9 16 -6 5 3 27 -3 49 -14 72 -37 182 -61 331
-71 159 -11 199 -11 130 0 l-45 7 45 2 c77 3 222 40 298 76 41 19 78 33 82 30
5 -3 12 0 16 6 5 8 3 9 -6 4 -9 -6 -11 -4 -6 4 5 7 14 10 21 7 33 -12 186 197
185 253 0 9 -11 -11 -25 -43 -13 -32 -29 -64 -36 -70 -6 -6 -1 9 11 33 28 55
70 219 72 280 l1 46 7 -45 c13 -87 10 -1 -6 131 -8 76 -26 166 -40 207 -13 40
-21 78 -18 84 5 7 2 8 -6 3 -10 -6 -12 -4 -7 9 4 9 3 15 -2 12 -4 -3 -13 6
-20 20 -8 18 -8 23 0 18 42 -26 -102 167 -205 274 -80 84 -184 173 -141 122
18 -21 16 -21 -17 4 -21 16 -38 31 -38 33 0 3 8 -1 18 -8 15 -13 16 -12 4 3
-8 9 -19 15 -27 12 -7 -3 -16 0 -21 7 -5 8 -3 10 6 4 8 -5 11 -4 6 3 -4 6 -13
9 -20 6 -8 -3 -17 0 -22 7 -5 8 -3 10 6 4 9 -5 11 -4 6 4 -4 6 -11 9 -16 6 -4
-3 -50 15 -102 40 -151 73 -247 96 -424 102 -148 5 -216 -4 -329 -42 -13 -4
-15 -4 -8 2 23 17 -102 198 -130 188 -7 -3 -23 5 -37 16 l-25 21 30 -16 30
-17 -23 20 c-13 11 -30 17 -39 14 -11 -4 -14 -2 -9 5 5 8 1 10 -10 5 -12 -4
-15 -3 -10 5 4 7 2 10 -6 7 -8 -3 -34 2 -58 12 -41 16 -88 18 -505 18 -414 0
-467 2 -530 18 -78 21 -227 90 -247 115 -11 13 -11 14 1 7 10 -5 12 -4 7 4 -4
6 -12 8 -18 5 -11 -7 -105 81 -141 131 -12 17 12 -4 53 -46 50 -51 57 -56 20
-15 -31 34 -66 75 -79 91 -12 17 -19 24 -15 16 5 -9 3 -12 -5 -7 -6 4 -9 11
-6 16 9 14 -15 51 -27 44 -6 -4 -8 -3 -5 3 4 6 -13 49 -38 95 -45 84 -63 103
-24 25 12 -23 16 -37 11 -32 -15 14 -94 194 -126 287 -38 111 -83 296 -103
423 -14 87 -18 170 -17 395 0 267 2 294 27 420 42 214 145 519 170 503 7 -4 8
1 3 13 -5 12 -4 16 3 9 5 -5 11 -23 14 -40 3 -21 4 -15 6 18 1 33 -3 46 -10
41 -8 -4 -8 0 0 15 7 11 14 21 16 21 3 0 3 -42 1 -92 -3 -51 -8 -262 -13 -468
-7 -335 -9 -358 -14 -215 -3 88 -3 -2 -1 -200 2 -198 9 -369 14 -380 9 -20 9
-20 -6 -1 -9 11 -16 24 -16 30 0 5 -2 7 -5 4 -10 -10 116 -228 128 -221 6 3 7
1 3 -5 -9 -15 164 -323 177 -315 6 3 7 1 3 -5 -9 -15 164 -323 177 -315 6 3 7
1 3 -5 -9 -15 97 -204 142 -254 18 -20 39 -35 47 -32 7 3 16 0 21 -7 5 -8 3
-10 -7 -4 -8 5 -11 4 -6 0 14 -16 62 -17 647 -21 1284 -9 1468 -9 1457 -1 -7
5 -3 7 11 4 12 -3 20 -1 16 4 -3 5 -1 9 4 9 18 0 72 58 72 77 -1 11 -6 6 -15
-15 -8 -17 -16 -32 -19 -32 -3 0 2 16 10 35 9 22 15 77 16 157 l2 123 7 -115
c5 -84 5 -66 2 65 -2 99 0 299 4 445 8 254 8 259 14 135 4 -86 5 -61 2 73 -2
111 0 320 4 465 8 257 8 259 14 127 5 -98 5 -82 3 60 -6 276 29 1451 37 1275
4 -89 5 -67 3 69 -3 110 -1 319 3 465 8 258 8 262 14 131 4 -92 5 -69 2 72 -2
114 0 323 4 465 8 250 8 254 14 128 4 -86 5 -61 2 73 -2 111 0 320 4 465 8
252 8 257 14 132 4 -89 5 -67 3 69 -3 110 -1 319 3 465 8 254 8 260 13 126 3
-77 4 25 3 227 -1 244 -6 375 -13 390 -11 22 -10 22 4 4 9 -11 16 -15 16 -9 0
6 -12 21 -27 33 -16 12 -22 18 -14 14 9 -5 12 -3 7 5 -4 6 -12 9 -17 6 -5 -4
-17 -1 -26 5 -16 10 -16 11 2 5 11 -3 17 -4 14 -1 -3 3 -489 7 -1080 8 -591 2
-1058 1 -1039 -2z m2095 -104 c15 -35 10 -269 -30 -1526 -3 -102 -19 -633 -36
-1180 -16 -547 -40 -1359 -54 -1805 -50 -1623 -44 -1497 -64 -1525 l-18 -25
-966 -3 -966 -2 -17 25 c-16 24 -16 61 -5 478 6 249 14 526 16 617 3 91 12
422 20 735 8 314 17 651 20 750 10 362 16 581 30 1125 8 305 17 634 20 730 3
96 15 494 25 884 17 597 22 713 35 733 l15 23 981 0 980 0 14 -34z m-2070 -28
c-2 -29 -7 -161 -10 -293 -6 -261 -21 -856 -30 -1135 -2 -96 -7 -274 -10 -395
-12 -445 -65 -2440 -75 -2760 -15 -506 -31 -1123 -33 -1291 -2 -135 -4 -151
-18 -143 -42 22 -42 17 -30 476 14 540 28 1081 41 1613 12 488 19 739 25 965
3 94 12 429 20 745 8 316 17 634 20 705 2 72 7 252 10 400 3 149 7 308 10 355
3 47 7 229 10 405 3 176 8 339 11 363 5 39 8 42 35 42 l29 0 -5 -52z m-125
-43 c0 -47 -2 -85 -4 -85 -2 0 -131 -13 -286 -30 -155 -16 -287 -30 -292 -30
-6 0 -8 33 -6 78 l3 77 280 36 c154 20 286 37 293 38 9 1 12 -22 12 -84z m-10
-247 c0 -51 -5 -253 -10 -448 -5 -195 -12 -449 -15 -565 -3 -115 -10 -390 -15
-610 -5 -220 -12 -490 -15 -600 -10 -358 -25 -935 -30 -1165 -3 -124 -7 -268
-10 -320 -3 -52 -7 -228 -10 -390 -3 -162 -8 -313 -10 -335 -2 -22 -7 -200
-11 -395 -4 -195 -10 -365 -13 -377 -5 -19 -54 48 -279 379 l-273 402 11 431
c6 236 22 889 35 1450 14 561 30 1187 35 1390 5 204 15 552 20 774 6 223 12
407 15 409 5 5 481 59 538 61 l37 1 0 -92z m-1315 -510 c14 -13 30 -39 34 -58
4 -19 -19 -960 -51 -2090 -48 -1662 -62 -2063 -73 -2095 -26 -70 -44 -75 -267
-75 -170 1 -189 2 -162 14 92 40 100 168 14 220 -92 54 -211 -36 -180 -137 12
-40 47 -78 83 -89 12 -3 -1482 -5 -3320 -5 l-3343 2 -27 27 c-23 24 -28 37
-31 95 -10 223 -152 4004 -152 4065 0 81 18 120 64 138 11 5 1678 9 3703 9
l3682 1 26 -22z m924 -4473 l252 -370 -3 -117 c-2 -64 -5 -114 -8 -111 -3 2
-127 220 -275 484 -238 421 -270 485 -267 515 l4 35 23 -33 c12 -18 136 -199
274 -403z m-1438 336 c36 -36 37 -73 4 -106 -34 -35 -86 -34 -114 1 -35 45
-25 96 24 122 33 18 55 14 86 -17z m-3571 -583 l0 -343 -72 1 c-72 2 -73 2
-77 30 -1 16 0 170 4 342 l7 312 69 0 69 0 0 -342z m890 0 l0 -343 -422 2
-423 3 -2 331 c-1 183 0 336 3 341 3 4 194 8 425 8 l419 0 0 -342z m215 -1 l0
-339 -85 0 -85 0 -3 328 c-1 181 0 335 3 342 3 9 27 12 87 10 l83 -3 0 -338z
m-1315 -192 l0 -25 -532 0 -533 0 -53 -86 c-29 -48 -51 -93 -48 -100 4 -11 43
-14 196 -14 163 0 191 2 197 15 3 9 2 19 -2 23 -3 4 -78 9 -166 12 l-159 5 32
53 33 52 517 0 518 0 0 -63 c0 -36 5 -68 12 -75 17 -17 1339 -17 1356 0 7 7
12 39 12 75 l0 63 504 0 504 0 9 -52 8 -53 -225 -5 c-217 -5 -225 -6 -225 -25
0 -19 8 -20 244 -23 135 -1 248 1 253 6 8 8 -15 163 -27 182 -4 6 -200 10
-526 10 -513 0 -519 0 -519 20 0 20 5 20 547 18 l547 -3 24 -134 c13 -73 21
-135 19 -137 -2 -2 -855 -3 -1895 -2 l-1891 3 91 143 91 142 543 0 544 0 0
-25z m7170 -770 c117 -17 217 -51 326 -109 79 -42 223 -143 224 -157 0 -9
-123 -72 -203 -103 l-68 -27 -46 38 c-25 21 -54 45 -64 53 -12 10 -17 22 -13
37 8 29 -12 87 -43 124 -41 49 -96 71 -164 67 -55 -3 -61 -1 -109 37 -27 22
-50 43 -50 47 0 13 107 9 210 -7z m-229 -62 c53 -45 67 -63 63 -79 -4 -16 18
-39 120 -122 121 -98 148 -114 161 -92 6 10 85 -46 85 -61 0 -23 -389 -89
-522 -89 -52 0 -64 4 -108 38 -26 20 -75 52 -109 71 -80 45 -141 106 -141 142
0 35 103 132 191 179 63 33 154 69 178 70 7 0 44 -26 82 -57z m-1156 -545
c109 -304 200 -559 202 -566 4 -9 -957 -12 -4787 -12 -3032 0 -4790 3 -4788
10 2 5 199 259 438 565 l434 555 4151 0 4152 0 198 -552z m2042 235 c178 -208
245 -364 246 -578 1 -264 -82 -433 -256 -519 -78 -38 -218 -76 -283 -76 -101
0 -258 74 -349 165 -71 71 -126 175 -151 285 -50 222 -77 310 -127 410 -28 58
-53 108 -55 113 -2 4 16 7 40 7 211 0 566 89 768 193 58 30 108 55 112 56 3 0
28 -25 55 -56z m-1208 -93 c159 -92 256 -239 312 -473 11 -45 31 -127 45 -182
14 -55 26 -110 27 -122 1 -11 5 -19 8 -17 3 2 11 -9 18 -24 11 -25 10 -26 -4
-8 -14 18 -15 16 -15 -30 0 -27 -5 -56 -10 -64 -6 -10 -3 -22 13 -40 12 -14 0
-5 -26 20 -73 69 -104 126 -148 272 -71 237 -151 397 -242 485 -55 55 -137
160 -137 177 0 6 9 -4 20 -21 23 -38 25 -39 27 -15 3 35 23 73 35 67 7 -4 -7
12 -32 35 l-45 42 40 -29 c22 -17 73 -49 114 -73z"/>
<path d="M10085 9987 c-17 -14 -30 -39 -36 -67 -12 -64 -11 -238 2 -262 26
-48 26 -48 849 -48 830 0 823 0 851 52 7 12 16 77 20 143 7 136 -3 179 -46
195 -17 6 -318 10 -820 10 l-794 0 -26 -23z m1515 -47 l25 -8 -25 -2 c-14 -1
-19 -4 -12 -7 8 -3 12 -35 12 -108 0 -88 -3 -106 -17 -115 -14 -8 -4 -10 44
-8 33 2 59 0 56 -4 -2 -5 -356 -7 -786 -6 -430 1 -753 4 -717 7 41 4 58 9 48
13 -15 6 -18 21 -18 106 0 63 4 102 12 110 9 9 7 12 -12 13 l-25 1 25 8 c14 4
327 8 695 8 369 0 681 -4 695 -8z"/>
<path d="M11374 9586 c-3 -8 -4 -29 -2 -48 l3 -33 119 -3 c135 -3 149 2 144
57 l-3 36 -128 3 c-103 2 -128 0 -133 -12z"/>
<path d="M10100 9447 c-55 -19 -69 -59 -71 -205 -3 -120 -2 -123 23 -148 l25
-26 802 1 c597 1 807 4 821 13 10 7 24 23 31 37 17 38 25 262 9 290 -27 51
-22 51 -842 50 -564 0 -772 -3 -798 -12z m1510 -67 c-36 -4 -57 -7 -47 -8 19
-2 21 -21 19 -146 -1 -43 -6 -72 -14 -77 -7 -4 9 -9 37 -12 28 -2 -299 -3
-725 -3 -426 0 -752 1 -723 3 51 4 51 4 43 32 -4 16 -7 53 -5 82 1 30 3 69 4
87 1 23 6 32 19 34 9 1 -8 4 -38 8 -30 4 294 7 720 7 426 0 746 -3 710 -7z"/>
<path d="M11344 9036 c-3 -8 -4 -29 -2 -48 l3 -33 130 0 130 0 5 35 c10 60 10
60 -131 60 -102 0 -131 -3 -135 -14z"/>
<path d="M10842 8910 l-784 -5 -23 -27 c-19 -23 -24 -42 -30 -136 -8 -129 -3
-161 31 -193 l26 -24 791 -1 c626 0 799 2 825 12 49 20 62 61 62 203 0 138 -9
159 -75 169 -22 4 -393 5 -823 2z m743 -69 c-31 -4 -45 -9 -37 -14 8 -6 12
-39 12 -108 0 -85 -2 -101 -17 -107 -11 -4 6 -9 47 -13 36 -3 -288 -6 -720 -6
-432 0 -758 3 -725 7 33 4 52 7 43 8 -16 2 -18 14 -18 100 0 53 5 104 10 112
8 12 1 16 -38 21 -26 3 300 6 723 6 424 0 748 -3 720 -6z"/>
<path d="M11337 8503 c-4 -3 -7 -24 -7 -45 l0 -39 133 3 132 3 3 43 3 42 -129
0 c-71 0 -132 -3 -135 -7z"/>
<path d="M11004 8129 c-17 -19 -19 -60 -32 -630 -11 -450 -12 -617 -4 -635
l12 -24 329 0 c293 0 330 2 342 17 11 13 17 141 28 634 14 595 14 620 -4 639
-17 19 -30 20 -335 20 -307 0 -317 -1 -336 -21z m187 -465 c-6 -231 -13 -448
-16 -484 -2 -36 -6 -113 -7 -172 l-1 -108 -76 2 -76 2 68 3 c50 3 67 8 67 18
0 8 -7 15 -15 15 -9 0 -34 9 -55 19 -37 18 -41 18 -50 3 -7 -12 -8 11 -5 73 2
50 7 254 11 455 7 360 19 643 23 545 2 -34 5 -44 10 -31 8 20 96 60 112 51 5
-4 9 4 9 16 0 12 2 20 6 17 3 -3 0 -194 -5 -424z m219 251 c0 -173 -14 -656
-26 -887 l-6 -128 -74 0 -73 0 4 158 c3 86 10 324 15 527 6 204 13 399 16 435
l6 65 69 0 69 0 0 -170z m85 153 c-3 -8 17 -21 54 -35 32 -13 61 -23 64 -23 3
0 8 17 10 38 8 65 -7 -729 -19 -1005 l-6 -143 -74 0 -74 0 0 113 c0 110 13
525 26 885 4 100 11 182 15 182 5 0 6 -6 4 -12z"/>
<path d="M10235 7836 c-75 -35 -140 -112 -166 -198 -49 -161 6 -317 140 -396
64 -38 173 -39 244 -2 192 98 240 370 95 536 -73 82 -209 109 -313 60z"/>
<path d="M10775 6455 c-117 -42 -160 -208 -79 -305 52 -62 123 -76 193 -40 72
36 106 104 99 195 -10 115 -111 187 -213 150z"/>
<path d="M10209 5701 c-21 -17 -25 -31 -31 -113 -3 -51 -7 -155 -7 -230 -1
-129 0 -138 21 -158 21 -20 32 -20 599 -20 553 0 578 1 600 19 23 19 24 25 33
245 l9 227 -23 24 -23 25 -578 0 c-553 0 -578 -1 -600 -19z m1032 -53 c-20 -5
-30 -13 -23 -16 19 -13 34 -64 21 -73 -8 -5 -4 -9 12 -12 13 -2 -58 -5 -158
-6 -219 -1 -215 1 -211 -105 l3 -71 145 -8 c80 -4 170 -6 200 -4 46 3 51 2 30
-7 -17 -8 -26 -20 -27 -40 -1 -16 -8 -33 -15 -38 -10 -6 -8 -8 5 -8 9 0 17 -4
17 -10 0 -7 -154 -10 -442 -9 -323 0 -439 3 -427 11 14 10 14 14 2 39 -7 15
-16 45 -18 66 -3 21 -7 58 -10 83 -5 35 -3 42 5 30 9 -12 10 -4 7 34 -3 29 1
66 9 89 18 52 18 55 -8 60 -13 2 189 4 447 5 325 0 459 -3 436 -10z m17 -168
l3 -35 -181 3 c-179 3 -180 3 -180 25 0 44 14 48 190 45 l165 -3 3 -35z"/>
<path d="M10382 5527 c-13 -15 -19 -147 -8 -165 6 -10 48 -11 194 -6 103 4
190 9 194 13 4 3 8 39 10 79 2 56 -1 75 -12 82 -24 15 -365 13 -378 -3z m366
-47 l3 -35 -181 3 c-179 3 -180 3 -180 25 0 44 14 48 190 45 l165 -3 3 -35z"/>
<path d="M10362 4761 c-19 -5 -38 -13 -44 -19 -5 -5 -13 -76 -18 -158 -12
-198 -13 -191 10 -214 19 -19 33 -20 453 -20 411 0 435 1 451 19 25 28 42 335
20 368 l-14 23 -339 0 c-186 0 -371 2 -412 5 -41 2 -89 0 -107 -4z m758 -71
c-25 -4 -40 -8 -34 -8 15 -2 34 -79 34 -134 -1 -24 -7 -60 -14 -80 -13 -36
-13 -38 8 -39 11 -1 -4 -5 -34 -9 -30 -5 -167 -8 -305 -8 -137 0 -275 3 -305
8 -30 4 -44 8 -30 9 15 1 20 4 13 9 -20 13 -32 112 -21 172 5 30 14 60 20 67
7 9 -1 13 -29 16 -21 2 138 4 352 4 215 0 370 -3 345 -7z"/>
<path d="M1331 9100 c-18 -4 -45 -17 -60 -27 -58 -43 -59 60 19 -1873 79
-1956 69 -1824 140 -1865 35 -20 38 -20 3260 -20 3219 0 3225 0 3260 20 20 12
44 38 56 62 19 38 22 65 28 295 3 139 9 307 12 373 2 66 16 496 29 955 13 459
26 889 29 955 3 66 11 322 18 569 12 438 12 449 -8 484 -10 19 -32 45 -47 56
l-28 21 -3337 1 c-1835 1 -3352 -2 -3371 -6z m6714 -80 c10 -11 20 -40 22 -67
2 -27 -21 -827 -50 -1778 -42 -1357 -57 -1735 -67 -1752 -8 -12 -25 -26 -37
-32 -35 -16 -6413 -15 -6448 1 -17 7 -28 23 -34 47 -7 29 -137 3167 -144 3474
-2 75 -1 80 26 103 l28 24 3343 0 c3325 0 3343 0 3361 -20z"/>
<path d="M6286 5238 c-9 -12 -16 -38 -16 -58 0 -20 7 -46 16 -58 15 -21 21
-22 179 -22 158 0 164 1 179 22 9 12 16 38 16 58 0 20 -7 46 -16 58 -15 21
-21 22 -179 22 -158 0 -164 -1 -179 -22z m324 -58 l0 -40 -145 0 -145 0 0 33
c0 19 3 37 7 40 3 4 69 7 145 7 l138 0 0 -40z"/>
<path d="M6757 5232 c-24 -26 -23 -104 1 -125 16 -14 44 -17 179 -17 117 0
163 3 171 13 16 19 25 64 18 91 -13 53 -25 56 -195 56 -140 0 -160 -2 -174
-18z m321 -64 l3 -38 -146 0 c-158 0 -164 2 -151 55 l7 26 142 -3 142 -3 3
-37z"/>
<path d="M7240 5231 c-5 -11 -10 -40 -10 -64 0 -73 11 -77 192 -77 178 0 188
4 188 79 0 82 2 81 -190 81 -157 0 -170 -1 -180 -19z m325 -61 l0 -35 -145 0
c-144 0 -145 0 -148 23 -8 51 -3 53 150 50 l143 -3 0 -35z"/>
<path d="M1387 3518 c-19 -24 -161 -206 -315 -405 l-280 -361 -4 -89 -3 -88
2978 -3 c2377 -2 2978 0 2982 10 2 7 16 196 31 419 l27 405 -25 75 -25 74
-2666 3 -2666 2 -34 -42z m286 -26 c-51 -78 -37 -73 -177 -70 l-127 3 37 48
37 47 124 0 125 0 -19 -28z m340 -22 l-37 -50 -149 0 c-117 0 -146 3 -140 13
4 7 19 29 33 50 l25 37 153 0 152 0 -37 -50z m348 33 c-5 -10 -22 -33 -38 -51
l-28 -33 -132 3 -131 3 35 48 35 47 134 0 c125 0 134 -1 125 -17z m359 11 c0
-3 -16 -26 -36 -50 l-36 -44 -149 0 -149 0 37 49 38 50 148 0 c81 1 147 -2
147 -5z m425 -44 l-25 -50 -145 0 -145 0 37 50 37 50 133 0 133 0 -25 -50z
m350 0 l-25 -50 -150 0 c-83 0 -150 2 -150 4 0 2 12 24 26 50 l26 46 149 0
149 0 -25 -50z m372 0 l-21 -50 -163 0 c-90 0 -163 2 -163 5 0 2 10 25 22 50
l22 45 162 0 162 0 -21 -50z m360 0 l-21 -50 -158 0 c-87 0 -158 2 -158 5 0 2
10 25 22 50 l22 45 157 0 157 0 -21 -50z m373 46 c0 -2 -9 -25 -20 -50 l-19
-46 -156 0 -155 0 16 38 c9 20 18 43 21 50 4 9 45 12 159 12 85 0 154 -2 154
-4z m347 -8 c-2 -7 -10 -30 -18 -50 l-13 -38 -153 0 c-84 0 -153 2 -153 4 0 2
9 25 20 50 l19 46 152 0 c117 0 150 -3 146 -12z m371 -38 l-21 -50 -168 0
-168 0 14 41 c8 22 17 44 20 50 4 5 80 9 175 9 l169 0 -21 -50z m362 44 c0 -3
-5 -25 -11 -50 l-11 -44 -154 0 c-94 0 -154 4 -154 10 0 5 7 28 16 50 l16 40
149 0 c82 0 149 -3 149 -6z m364 -21 c-19 -76 -6 -71 -180 -72 l-157 -2 7 42
c4 23 9 46 12 51 3 4 77 8 165 8 l159 0 -6 -27z m666 13 c0 -7 -3 -27 -6 -44
l-6 -31 -315 -3 -314 -3 6 22 c3 12 10 34 15 48 l10 25 305 0 c252 0 305 -2
305 -14z m-4667 -189 l-28 -46 -143 -1 c-157 0 -151 -4 -100 62 l29 37 132 3
c73 2 133 0 135 -3 2 -4 -10 -27 -25 -52z m497 56 c0 -3 -14 -28 -31 -55 l-31
-48 -204 0 c-112 0 -204 2 -204 5 0 3 13 26 29 52 l30 48 205 3 c113 1 206 -1
206 -5z m350 1 c0 -4 -12 -28 -27 -55 l-26 -49 -154 0 c-121 0 -153 3 -147 13
4 6 20 31 36 55 l29 42 144 0 c80 0 145 -3 145 -6z m348 -1 c-2 -5 -14 -29
-28 -55 l-24 -48 -153 0 -152 0 32 55 32 55 148 0 c82 0 147 -3 145 -7z m340
-40 c-11 -27 -24 -51 -27 -56 -4 -4 -78 -6 -164 -5 l-157 3 30 53 30 52 155 0
154 0 -21 -47z m369 -5 l-23 -53 -167 -3 -167 -2 27 55 27 55 163 0 163 0 -23
-52z m401 44 c-1 -4 -11 -28 -22 -55 l-19 -47 -169 0 c-132 0 -169 3 -165 13
3 6 13 31 22 55 l17 42 170 0 c93 0 168 -3 166 -8z m369 -4 c-3 -7 -13 -32
-22 -55 l-17 -43 -165 0 c-91 0 -163 4 -161 8 2 4 12 29 23 55 l20 47 164 0
c126 0 162 -3 158 -12z m348 -40 l-25 -53 -159 -3 -160 -2 15 37 c33 79 18 73
194 73 l159 0 -24 -52z m375 0 c-11 -29 -20 -54 -20 -55 0 -2 -74 -3 -165 -3
-100 0 -165 4 -165 10 0 5 10 30 22 55 l22 45 163 0 163 0 -20 -52z m390 45
c0 -5 -6 -28 -14 -53 l-13 -45 -167 -3 c-91 -1 -166 1 -166 5 0 5 8 29 17 56
l17 47 163 0 c90 0 163 -3 163 -7z m345 -40 c-8 -27 -15 -51 -15 -55 0 -5 -70
-8 -155 -8 -85 0 -155 4 -155 9 0 4 5 23 11 42 6 19 12 40 15 47 2 9 43 12
158 12 l155 0 -14 -47z m508 -90 c-6 -76 -12 -139 -13 -140 0 0 -63 -2 -141
-2 l-141 -2 8 63 c13 113 23 103 -92 106 l-101 3 15 54 15 55 232 0 231 0 -13
-137z m-4949 115 c-4 -7 -20 -30 -37 -50 l-29 -38 -209 0 -209 0 37 50 37 50
209 0 c164 0 207 -3 201 -12z m46 -134 c0 -3 -18 -32 -40 -65 l-41 -59 -290 0
-291 0 21 28 c12 15 34 44 49 64 l27 38 283 0 c155 0 282 -2 282 -6z m390 -1
c-1 -5 -16 -33 -34 -63 l-32 -55 -172 -3 c-95 -1 -172 0 -172 3 0 3 18 33 40
66 l41 59 164 0 c91 0 165 -3 165 -7z m364 -5 c-4 -7 -23 -37 -41 -65 l-34
-53 -155 0 -156 0 25 43 c13 23 30 52 36 65 11 21 16 22 172 22 125 0 159 -3
153 -12z m354 5 c-2 -5 -17 -34 -33 -65 l-29 -58 -158 0 -159 0 34 53 c18 28
37 58 41 65 5 9 48 12 157 12 83 0 149 -3 147 -7z m352 -55 l-30 -63 -171 -3
-171 -2 25 42 c13 24 30 53 36 66 11 21 16 22 176 22 l164 0 -29 -62z m408 0
l-35 -63 -176 -3 c-98 -1 -177 0 -177 4 0 4 12 33 26 65 l27 59 184 0 185 0
-34 -62z m382 57 c0 -3 -14 -32 -30 -65 l-30 -60 -156 0 c-86 0 -154 3 -152 8
2 4 17 33 33 65 l29 57 153 0 c84 0 153 -2 153 -5z m390 0 c0 -3 -14 -32 -30
-65 l-30 -60 -170 0 c-94 0 -170 2 -170 5 0 3 14 32 30 65 l30 60 170 0 c94 0
170 -2 170 -5z m337 -57 l-22 -63 -163 -3 c-89 -1 -162 0 -162 3 0 3 14 32 30
65 l30 60 155 0 154 0 -22 -62z m390 0 l-22 -63 -174 -3 c-137 -2 -172 0 -169
10 3 7 13 37 22 66 l18 52 174 0 173 0 -22 -62z m375 -3 l-25 -65 -165 0
c-127 0 -163 3 -159 13 2 6 13 36 23 65 l19 52 166 0 167 0 -26 -65z m390 3
l-17 -63 -173 -3 c-102 -1 -172 1 -172 7 0 5 10 34 21 65 l22 56 168 0 167 0
-16 -62z m443 25 c-4 -21 -9 -50 -11 -65 l-6 -28 -199 0 c-109 0 -199 3 -199
7 0 4 7 33 16 65 l17 58 194 0 194 0 -6 -37z m-4948 -202 l-52 -70 -188 0
c-178 -1 -187 0 -175 17 7 10 31 41 53 70 l39 52 188 0 188 0 -53 -69z m427
57 c-4 -7 -26 -39 -48 -70 l-41 -57 -169 -1 -168 0 24 33 c13 17 37 49 52 70
l28 37 165 0 c128 0 163 -3 157 -12z m369 -36 c-59 -102 -35 -93 -231 -90
l-172 3 47 67 48 68 168 0 167 0 -27 -48z m392 -22 l-35 -70 -181 0 -180 0 32
58 c18 31 37 63 42 70 7 9 56 12 183 12 l174 0 -35 -70z m402 0 l-32 -69 -177
-1 c-98 0 -178 2 -178 5 0 2 14 34 32 70 l32 65 178 0 177 0 -32 -70z m409 53
c-3 -10 -14 -40 -25 -68 l-19 -50 -176 -3 c-97 -1 -176 -1 -176 2 0 2 14 34
31 70 l31 66 170 0 c157 0 169 -1 164 -17z m376 -53 l-25 -70 -177 0 -178 0
27 70 26 70 176 0 176 0 -25 -70z m380 0 l-27 -70 -167 0 -167 0 20 58 c10 31
21 63 24 70 3 9 47 12 174 12 l169 0 -26 -70z m418 68 c0 -2 -11 -32 -24 -68
l-24 -65 -177 -3 c-166 -2 -177 -1 -170 15 4 10 16 42 27 71 l19 52 175 0 c96
0 174 -1 174 -2z m366 -65 l-23 -68 -172 -3 c-136 -2 -172 0 -169 10 2 7 12
39 22 71 l20 57 172 0 173 0 -23 -67z m391 55 c-2 -7 -12 -39 -21 -70 l-17
-58 -164 0 c-91 0 -165 4 -165 8 0 4 9 36 21 70 l21 62 165 0 c128 0 164 -3
160 -12z m369 -58 l-21 -70 -171 0 -172 0 21 70 20 70 172 0 173 0 -22 -70z
m960 48 c-3 -13 -6 -44 -6 -70 l0 -48 -466 0 c-415 0 -465 2 -460 15 3 9 13
40 22 70 l15 55 451 0 450 0 -6 -22z m-5336 -163 c0 -3 -15 -27 -32 -55 l-33
-49 -203 -3 c-111 -2 -202 -2 -202 0 0 2 19 27 43 57 l42 54 193 0 c105 1 192
-1 192 -4z m409 -32 c-51 -86 -28 -78 -234 -78 -102 0 -185 1 -185 3 0 8 25
50 47 80 l24 32 185 0 186 0 -23 -37z m501 32 c0 -3 -16 -30 -36 -60 l-37 -55
-214 0 -215 0 23 38 c56 92 25 82 265 82 118 0 214 -2 214 -5z m2490 -2 c0 -3
-8 -30 -17 -60 l-17 -53 -1238 0 -1238 0 37 60 38 60 1217 0 c670 0 1218 -3
1218 -7z m655 -22 c-4 -14 -13 -40 -20 -58 l-14 -33 -305 0 c-169 0 -306 2
-306 4 0 3 21 64 35 105 4 11 58 13 311 10 l305 -4 -6 -24z m639 -14 c-18 -83
14 -76 -324 -77 -165 0 -300 1 -300 3 0 4 16 51 34 102 2 6 109 9 300 7 l297
-3 -7 -32z m625 6 c-1 -16 -4 -39 -8 -53 l-6 -25 -293 0 c-240 0 -291 2 -287
13 3 8 8 31 11 53 l7 39 288 0 289 0 -1 -27z"/>
<path d="M7052 3523 c-11 -22 -36 -323 -31 -378 l4 -40 540 0 540 0 3 75 c4
78 -32 324 -51 348 -7 9 -120 12 -503 12 -460 0 -494 -1 -502 -17z m298 -73
l0 -40 -135 0 c-74 0 -135 4 -135 9 0 5 3 23 6 40 l7 31 128 0 129 0 0 -40z
m370 16 c0 -13 3 -31 6 -40 5 -14 -13 -16 -165 -16 l-171 0 0 40 0 40 165 0
165 0 0 -24z m310 0 c0 -13 3 -31 6 -40 5 -14 -10 -16 -130 -16 -123 0 -136 2
-136 18 0 9 -3 27 -6 40 l-6 22 136 0 136 0 0 -24z m-680 -141 l0 -45 -140 0
-140 0 0 29 c0 61 0 61 146 61 l134 0 0 -45z m380 0 l0 -45 -170 0 -170 0 0
45 0 45 170 0 170 0 0 -45z m320 31 c0 -7 3 -28 6 -45 l7 -32 -144 3 -144 3
-3 43 -3 42 140 0 c113 0 141 -3 141 -14z"/>
<path d="M8280 3460 l-23 -80 47 -382 c25 -211 46 -386 46 -390 0 -5 354 -8
786 -8 l787 0 -7 78 c-6 65 -29 138 -149 467 l-143 390 -660 3 -661 2 -23 -80z
m354 18 c3 -13 6 -33 6 -45 0 -23 -1 -23 -140 -23 -112 0 -140 3 -140 14 0 7
-3 28 -6 45 l-6 31 140 0 c136 0 140 -1 146 -22z m345 -15 c6 -21 11 -41 11
-45 0 -5 -67 -8 -149 -8 -146 0 -149 0 -155 23 -3 12 -6 32 -6 45 0 22 1 22
145 22 l144 0 10 -37z m375 6 c12 -62 20 -59 -159 -59 -91 0 -165 3 -165 8 0
4 -4 24 -9 45 l-9 37 168 0 168 0 6 -31z m245 9 c27 -74 34 -68 -83 -68 l-105
0 -10 38 c-6 20 -11 40 -11 45 0 4 45 7 100 7 95 0 101 -1 109 -22z m-946
-115 c3 -5 8 -29 11 -55 l7 -48 -145 0 -146 0 0 24 c0 13 -3 38 -6 55 l-6 31
140 0 c78 0 143 -3 145 -7z m356 -30 c22 -85 35 -78 -139 -74 -85 2 -156 4
-156 5 -1 0 -5 25 -9 54 l-7 52 151 0 150 0 10 -37z m380 -7 c6 -24 13 -51 17
-60 6 -14 -11 -16 -165 -16 l-170 0 -10 38 c-5 20 -11 47 -14 60 l-5 22 168 0
168 0 11 -44z m294 -78 c24 -68 47 -133 51 -145 7 -23 7 -23 -116 -23 l-123 0
-34 133 c-19 72 -36 138 -39 145 -3 9 22 12 106 12 l110 0 45 -122z m-999 -65
c3 -16 8 -45 12 -65 l6 -38 -146 0 c-132 0 -146 2 -147 18 0 9 -4 38 -8 65
l-8 47 143 0 142 0 6 -27z m369 -35 c8 -35 13 -65 12 -68 -2 -3 -75 -4 -162
-2 l-160 3 -9 64 -10 65 157 0 158 0 14 -62z m376 25 c5 -21 13 -50 16 -65 l7
-27 -171 -3 -172 -3 -5 25 c-3 14 -10 41 -15 60 -5 19 -9 38 -9 43 0 4 76 7
170 7 l169 0 10 -37z m44 -172 c3 -16 9 -40 13 -55 l6 -26 -175 0 -174 0 -7
38 c-3 20 -8 46 -12 57 -5 20 -1 20 169 17 l175 -3 5 -28z m-758 -8 c4 -21 9
-46 12 -55 4 -17 -7 -18 -141 -18 -160 0 -147 -6 -161 73 l-6 37 145 0 145 0
6 -37z m369 20 c3 -10 8 -35 12 -55 l6 -38 -166 0 c-126 0 -166 3 -166 13 -1
6 -5 31 -9 55 l-8 42 163 0 c146 0 163 -2 168 -17z m722 -103 c24 -63 43 -121
43 -127 1 -10 -33 -13 -137 -13 l-137 0 -28 108 c-15 59 -30 117 -33 130 l-6
23 127 -3 128 -3 43 -115z m-686 -60 c4 -14 10 -37 14 -53 l7 -27 -173 2 -172
3 -8 44 c-4 24 -5 48 -2 53 3 5 78 7 167 6 l161 -3 6 -25z m389 8 c5 -13 12
-38 16 -55 l7 -33 -176 0 c-194 0 -178 -6 -192 73 l-6 37 171 0 c169 0 172 0
180 -22z m-769 0 c0 -7 3 -30 6 -50 l7 -38 -145 0 -145 0 -7 31 c-14 73 -22
69 139 69 109 0 145 -3 145 -12z"/>
<path d="M7337 3034 c-4 -4 -7 -34 -7 -66 l0 -58 -169 0 -169 0 -6 -57 c-3
-32 -7 -105 -8 -163 l-3 -105 594 -3 c327 -1 598 1 602 5 5 6 -13 281 -21 321
0 1 -79 2 -175 2 l-174 0 -3 63 -3 62 -226 3 c-124 1 -228 -1 -232 -4z m423
-79 l0 -45 -195 0 -195 0 0 45 0 45 195 0 195 0 0 -45z m-434 -127 c-3 -24 -5
-51 -5 -60 -1 -16 -15 -18 -146 -18 l-145 0 0 60 0 60 151 0 151 0 -6 -42z
m436 -14 c1 -31 1 -58 -1 -60 -6 -5 -386 -5 -392 0 -2 2 -2 29 -1 60 l4 56
193 0 193 0 4 -56z m348 42 c0 -7 3 -34 6 -60 l7 -46 -155 0 -155 0 -7 38
c-14 88 -26 82 149 82 124 0 155 -3 155 -14z"/>
<path d="M11882 2367 c-64 -68 26 -167 99 -108 17 13 23 29 23 56 0 68 -77
100 -122 52z"/>
<path d="M7310 3719 c-19 -4 519 -6 1195 -5 677 0 1127 2 1000 3 -527 6 -2163
8 -2195 2z"/>
</g>
</svg>
