<?xml version="1.0" standalone="no"?>
<!DOCTYPE svg PUBLIC "-//W3C//DTD SVG 20010904//EN"
 "http://www.w3.org/TR/2001/REC-SVG-20010904/DTD/svg10.dtd">
<svg version="1.0" xmlns="http://www.w3.org/2000/svg"
 width="512.000000pt" height="512.000000pt" viewBox="0 0 512.000000 512.000000"
 preserveAspectRatio="xMidYMid meet">

<g transform="translate(0.000000,512.000000) scale(0.100000,-0.100000)"
fill="#000000" stroke="none">
<path d="M1373 3965 l-263 -259 0 -506 c0 -278 4 -510 8 -516 4 -6 18 -17 31
-24 20 -10 27 -9 50 8 l26 19 3 467 2 466 218 0 c181 0 221 3 240 16 22 15 22
19 22 240 l0 224 930 0 930 0 0 -490 c0 -477 1 -491 20 -510 25 -25 55 -25 80
0 20 20 20 33 20 553 0 502 -1 535 -18 550 -17 15 -109 17 -1028 19 l-1009 3
-262 -260z m217 -90 l0 -135 -137 0 -138 0 135 135 c74 74 136 135 137 135 2
0 3 -61 3 -135z"/>
<path d="M1911 3826 c-21 -25 -9 -79 19 -93 33 -17 1094 -19 1137 -2 46 17 58
62 25 92 -17 15 -73 17 -594 17 -488 0 -577 -2 -587 -14z"/>
<path d="M3785 3616 c-29 -29 -31 -43 -9 -74 14 -21 22 -22 150 -22 130 0 136
-1 159 -25 l25 -24 0 -235 0 -236 -804 -2 -804 -3 -43 -30 c-57 -40 -77 -70
-95 -140 -22 -85 -62 -152 -113 -191 -83 -64 -84 -64 -708 -64 -613 0 -605 1
-665 -57 -40 -38 -47 -64 -78 -270 l-28 -188 -1 485 c0 450 1 488 18 525 33
73 104 125 169 125 55 0 83 68 44 103 -23 21 -63 21 -130 2 -68 -20 -152 -97
-189 -173 l-28 -57 0 -990 0 -990 29 -53 c32 -57 79 -98 135 -118 29 -11 351
-13 1588 -14 1523 0 1553 0 1605 20 76 28 151 98 187 173 28 57 40 125 151
832 66 424 120 793 120 820 0 106 -80 210 -184 240 l-55 16 -3 252 c-3 245 -4
253 -27 290 -13 21 -42 50 -64 65 -38 26 -48 27 -183 30 -142 4 -143 4 -169
-22z m485 -754 c46 -23 80 -75 80 -122 0 -21 -54 -379 -119 -797 -127 -811
-128 -813 -193 -868 -69 -58 32 -55 -1634 -55 -1523 0 -1537 0 -1569 20 -35
22 -65 73 -65 112 0 12 38 300 86 638 82 584 88 616 111 638 l24 22 562 0
c476 0 572 2 622 16 149 38 259 152 300 310 9 38 24 67 40 82 l26 22 847 0
c786 0 849 -1 882 -18z"/>
<path d="M1597 3272 c-23 -25 -21 -55 4 -78 20 -18 49 -19 718 -22 383 -2 710
0 728 3 60 11 83 63 45 98 -17 16 -83 17 -749 17 -694 0 -731 -1 -746 -18z"/>
</g>
</svg>
