<?xml version="1.0" standalone="no"?>
<!DOCTYPE svg PUBLIC "-//W3C//DTD SVG 20010904//EN"
 "http://www.w3.org/TR/2001/REC-SVG-20010904/DTD/svg10.dtd">
<svg version="1.0" xmlns="http://www.w3.org/2000/svg"
 width="512.000000pt" height="512.000000pt" viewBox="0 0 512.000000 512.000000"
 preserveAspectRatio="xMidYMid meet">

<g transform="translate(0.000000,512.000000) scale(0.100000,-0.100000)"
fill="#000000" stroke="none">
<path d="M2440 4894 c-171 -36 -327 -160 -399 -316 -64 -135 -76 -255 -42
-391 24 -92 46 -136 110 -221 l50 -66 -42 0 c-205 -1 -403 -151 -461 -349 -13
-44 -16 -108 -16 -331 0 -276 0 -277 23 -298 23 -22 26 -22 420 -22 l397 0 0
-140 0 -140 -943 0 c-902 0 -945 -1 -960 -18 -15 -16 -17 -45 -17 -200 l0
-182 -38 0 c-75 0 -112 -85 -56 -129 26 -20 38 -21 335 -21 l309 0 0 -230 0
-230 -480 0 -480 0 0 230 c0 219 1 230 19 230 35 0 65 34 65 75 0 56 -29 75
-116 75 -60 0 -72 -3 -93 -25 l-25 -24 0 -328 c1 -353 1 -352 54 -373 16 -6
125 -10 267 -10 l239 0 0 -245 0 -245 -255 0 -256 0 -24 -25 -25 -24 0 -329
c0 -310 1 -331 19 -353 l19 -24 586 -3 586 -2 25 24 25 25 0 331 0 331 -25 24
-24 25 -251 0 -250 0 0 245 0 245 234 0 c241 0 288 6 306 40 6 11 10 153 10
349 l0 330 -26 20 c-25 20 -39 21 -275 21 l-249 0 0 125 0 125 885 0 885 0 0
-125 0 -125 -250 0 -251 0 -24 -25 -25 -24 0 -326 c0 -194 4 -334 10 -345 18
-34 65 -40 306 -40 l234 0 0 -245 0 -245 -250 0 -251 0 -24 -25 -25 -24 0
-331 0 -331 25 -25 25 -25 221 3 c218 3 221 3 240 27 25 30 24 62 -2 95 l-20
26 -170 0 -169 0 0 230 0 230 480 0 480 0 0 -230 0 -230 -169 0 -170 0 -20
-26 c-26 -33 -27 -65 -2 -95 19 -24 20 -24 246 -24 226 0 227 0 246 24 18 22
19 43 19 353 l0 329 -25 24 -24 25 -251 0 -250 0 0 245 0 245 234 0 c241 0
288 6 306 40 6 11 10 151 10 345 l0 326 -25 24 -24 25 -251 0 -250 0 0 125 0
125 885 0 885 0 0 -125 0 -125 -249 0 c-236 0 -250 -1 -275 -21 l-26 -20 0
-330 c0 -196 4 -338 10 -349 18 -34 65 -40 306 -40 l234 0 0 -245 0 -245 -250
0 -251 0 -24 -25 -25 -24 0 -331 0 -331 25 -25 25 -24 586 2 586 3 19 24 c18
22 19 43 19 353 l0 329 -25 24 -24 25 -256 0 -255 0 0 245 0 245 239 0 c142 0
251 4 267 10 53 21 53 20 54 373 l0 328 -25 24 c-21 22 -33 25 -93 25 -87 0
-116 -19 -116 -75 0 -41 30 -75 65 -75 18 0 19 -11 19 -230 l0 -230 -480 0
-480 0 0 230 0 230 309 0 c297 0 309 1 335 21 56 44 19 129 -57 129 l-37 0 0
183 c0 165 -2 186 -18 200 -17 16 -98 17 -960 17 l-942 0 0 140 0 140 398 0
399 0 21 23 c21 23 22 30 22 298 0 301 -5 336 -61 435 -80 141 -255 243 -416
244 l-42 0 50 66 c64 85 86 129 110 221 80 316 -124 640 -446 708 -86 18 -150
18 -235 -1z m202 -145 c228 -48 378 -265 340 -489 -16 -91 -51 -160 -118 -230
-89 -94 -199 -136 -332 -128 -248 14 -437 250 -395 494 30 172 158 309 328
350 65 16 111 17 177 3z m480 -1023 c63 -24 142 -96 176 -160 27 -51 27 -53
30 -283 l3 -233 -135 0 -136 0 0 75 c0 67 -3 79 -25 100 -33 34 -77 33 -104
-1 -17 -22 -21 -41 -21 -100 l0 -74 -350 0 -350 0 0 75 c0 67 -3 79 -25 100
-13 14 -36 25 -50 25 -14 0 -37 -11 -50 -25 -22 -21 -25 -33 -25 -100 l0 -75
-136 0 -135 0 3 233 c3 230 3 232 30 283 39 73 116 139 192 164 58 18 87 19
561 17 456 -2 504 -4 547 -21z m-82 -1886 l0 -230 -480 0 -480 0 0 230 0 230
480 0 480 0 0 -230z m-1930 -1250 l0 -230 -480 0 -480 0 0 230 0 230 480 0
480 0 0 -230z m3860 0 l0 -230 -480 0 -480 0 0 230 0 230 480 0 480 0 0 -230z"/>
</g>
</svg>
