<?xml version="1.0" standalone="no"?>
<!DOCTYPE svg PUBLIC "-//W3C//DTD SVG 20010904//EN"
 "http://www.w3.org/TR/2001/REC-SVG-20010904/DTD/svg10.dtd">
<svg version="1.0" xmlns="http://www.w3.org/2000/svg"
 width="282.886598pt" height="80.000000pt" viewBox="0 0 282.886598 80.000000"
 preserveAspectRatio="xMidYMid meet">
<metadata>
Created by potrace 1.16, written by Peter Selinger 2001-2019
</metadata>
<g transform="translate(0.000000,80.000000) scale(0.082474,-0.082474)"
fill="#000000" stroke="none">
<path d="M2505 946 c-66 -30 -95 -86 -95 -188 l0 -58 -55 0 c-48 0 -55 -2 -55
-20 0 -18 7 -20 55 -20 l55 0 0 -270 0 -270 25 0 25 0 0 270 0 270 95 0 c88 0
95 1 95 20 0 19 -7 20 -96 20 l-96 0 3 79 c5 90 19 115 78 131 32 8 49 7 121
-11 10 -3 15 3 15 16 0 38 -109 58 -170 31z"/>
<path d="M100 515 l0 -395 25 0 25 0 0 395 0 395 -25 0 -25 0 0 -395z"/>
<path d="M300 885 l0 -25 145 0 145 0 0 -370 0 -370 25 0 25 0 0 370 0 370
145 0 145 0 0 25 0 25 -315 0 -315 0 0 -25z"/>
<path d="M1150 890 c-135 -46 -191 -201 -107 -296 41 -47 85 -68 219 -104 195
-53 244 -92 235 -189 -10 -93 -73 -134 -215 -139 -104 -4 -186 17 -250 65 -29
22 -33 22 -39 7 -9 -24 42 -67 112 -93 162 -61 351 -23 416 83 41 68 36 145
-13 202 -42 47 -80 65 -233 108 -151 43 -189 65 -211 122 -20 52 -6 114 35
155 64 64 210 74 333 25 34 -14 65 -23 70 -20 16 10 8 30 -19 46 -84 49 -236
62 -333 28z"/>
<path d="M1885 705 c-5 -2 -26 -6 -45 -9 -19 -4 -59 -20 -87 -36 -48 -27 -52
-32 -41 -50 11 -17 14 -17 28 -5 36 33 112 57 180 57 122 1 177 -46 187 -162
l6 -60 -134 0 c-154 0 -196 -9 -244 -51 -80 -71 -64 -189 32 -246 39 -23 59
-27 117 -27 91 -1 139 16 187 66 l39 40 0 -51 c0 -48 1 -51 26 -51 l26 0 -4
223 c-3 239 -4 244 -61 305 -43 45 -157 76 -212 57z m225 -360 c0 -65 -16
-100 -64 -143 -71 -63 -220 -66 -280 -5 -54 53 -42 149 22 183 31 16 58 19
180 20 l142 0 0 -55z"/>
<path d="M2913 701 c-41 -11 -112 -53 -140 -83 -51 -55 -68 -107 -68 -208 0
-85 3 -100 27 -140 62 -105 148 -154 268 -154 81 0 129 16 188 61 30 23 32 27
19 41 -14 13 -19 12 -47 -11 -38 -32 -88 -47 -159 -47 -73 0 -124 17 -169 56
-38 32 -81 108 -68 121 3 3 106 26 229 50 122 23 232 45 244 48 19 4 22 10 16
38 -24 130 -123 222 -249 232 -33 2 -73 0 -91 -4z m167 -58 c60 -24 106 -82
123 -153 l6 -26 -222 -42 c-122 -23 -225 -42 -229 -42 -5 0 -8 24 -8 53 0 71
40 152 95 190 67 46 153 54 235 20z"/>
</g>
</svg>
